<?xml version="1.0" encoding="iso-8859-1"?>
<!-- Generator: Adobe Illustrator 19.0.0, SVG Export Plug-In . SVG Version: 6.00 Build 0)  -->
<svg xmlns="http://www.w3.org/2000/svg" xmlns:xlink="http://www.w3.org/1999/xlink" version="1.1" id="Capa_1" x="0px" y="0px" viewBox="0 0 512 512" style="enable-background:new 0 0 512 512;" xml:space="preserve" width="512px" height="512px">
<g>
	<g>
		<path d="M442.938,195.11l-43.647,240.033H112.709L69.062,195.116l-34.112,6.201l46.23,254.266    c1.502,8.241,8.68,14.233,17.059,14.233h315.521c8.379,0,15.556-5.993,17.053-14.239l46.23-254.266L442.938,195.11z" fill="#A87C4C"/>
	</g>
</g>
<g>
	<g>
		<path d="M494.664,180.877H17.336C7.761,180.877,0,188.638,0,198.213c0,9.575,7.761,17.336,17.336,17.336h477.327    c9.576,0,17.336-7.761,17.336-17.336C512,188.638,504.239,180.877,494.664,180.877z" fill="#A87C4C"/>
	</g>
</g>
<g>
	<g>
		<path d="M441.863,188.314L345.357,49.623c-5.472-7.853-16.267-9.801-24.138-4.328c-7.853,5.472-9.795,16.273-4.328,24.132    l96.506,138.691c3.369,4.843,8.766,7.437,14.25,7.437c3.415,0,6.865-1.011,9.887-3.109    C445.388,206.974,447.33,196.173,441.863,188.314z" fill="#A87C4C"/>
	</g>
</g>
<g>
	<g>
		<path d="M198.871,45.295c-7.859-5.473-18.665-3.537-24.132,4.328L78.233,188.314c-5.467,7.859-3.531,18.665,4.328,24.132    c3.017,2.098,6.466,3.109,9.888,3.109c5.478,0,10.87-2.6,14.245-7.437l96.506-138.691    C208.666,61.568,206.73,50.762,198.871,45.295z" fill="#A87C4C"/>
	</g>
</g>
<g>
	<g>
		<path d="M342.919,255.417c-6.709-6.836-17.683-6.94-24.514-0.231l-82.463,80.938l-43.352-39.741    c-7.062-6.461-18.024-5.993-24.496,1.069c-6.472,7.056-5.993,18.024,1.063,24.496l55.476,50.853    c3.323,3.04,7.518,4.554,11.714,4.554c4.398,0,8.784-1.659,12.153-4.964l94.194-92.461    C349.53,273.227,349.628,262.254,342.919,255.417z" fill="#A87C4C"/>
	</g>
</g>
<g>
</g>
<g>
</g>
<g>
</g>
<g>
</g>
<g>
</g>
<g>
</g>
<g>
</g>
<g>
</g>
<g>
</g>
<g>
</g>
<g>
</g>
<g>
</g>
<g>
</g>
<g>
</g>
<g>
</g>
</svg>
