<?xml version="1.0" encoding="iso-8859-1"?>
<!-- Generator: Adobe Illustrator 18.1.1, SVG Export Plug-In . SVG Version: 6.00 Build 0)  -->
<svg xmlns="http://www.w3.org/2000/svg" xmlns:xlink="http://www.w3.org/1999/xlink" version="1.1" id="Capa_1" x="0px" y="0px" viewBox="0 0 343.967 343.967" style="enable-background:new 0 0 343.967 343.967;" xml:space="preserve" width="512px" height="512px">
<g>
	<g>
		<path d="M301.294,186.876c14.022-11.025,28.566-46.167-14.403-56.316    c-30.894-7.234-51.617,14.773-66.313-17.574c-13.462-29.648,28.066-83.43-17.16-108.808c-16.649-9.361-31.965-3.416-30.355,22.159    c3.03,51.258-27.951,58.59-50.964,106.524c-21.985,12.847-39.879,19.902-61.945,33.042l-31.65,0.332v149.052h29.404l22.697,6.63    c34.799,18.237,77.73,22.05,107.612,22.05c17.992,0,54.276-1.697,66.09-11.15c13.396-10.72,17.269-27.913,18.455-35.12    c23.35-9.366,29.578-28.898,21.022-50.034c10.095-5.559,16.366-12.988,18.645-22.077    C317.105,207.082,304.775,192.907,301.294,186.876z" fill="#888888"/>
	</g>
</g>
<g>
</g>
<g>
</g>
<g>
</g>
<g>
</g>
<g>
</g>
<g>
</g>
<g>
</g>
<g>
</g>
<g>
</g>
<g>
</g>
<g>
</g>
<g>
</g>
<g>
</g>
<g>
</g>
<g>
</g>
</svg>
