<?xml version="1.0" encoding="iso-8859-1"?>
<!-- Generator: Adobe Illustrator 16.0.0, SVG Export Plug-In . SVG Version: 6.00 Build 0)  -->
<!DOCTYPE svg PUBLIC "-//W3C//DTD SVG 1.1//EN" "http://www.w3.org/Graphics/SVG/1.1/DTD/svg11.dtd">
<svg xmlns="http://www.w3.org/2000/svg" xmlns:xlink="http://www.w3.org/1999/xlink" version="1.1" id="Capa_1" x="0px" y="0px" width="512px" height="512px" viewBox="0 0 499.891 499.891" style="enable-background:new 0 0 499.891 499.891;" xml:space="preserve">
<g>
	<g>
		<path d="M486.615,322.905v-58.289c0-8.283-6.715-15-15-15h-8.801l-74.73-99.464c-2.834-3.771-7.275-5.99-11.992-5.99h-65.867V74.8    c0-8.284-6.717-15-15.001-15H15c-8.284,0-15,6.716-15,15v288.666c0,8.284,6.716,15,15,15h23.917    c1.825,34.289,30.292,61.625,65.028,61.625s63.203-27.336,65.028-61.625h126.25h35.693c1.826,34.289,30.293,61.625,65.029,61.625    s63.203-27.336,65.027-61.625h10.643h13.275c8.283,0,15-6.716,15-15V337.8C499.893,330.1,494.086,323.763,486.615,322.905z     M109.88,143.386c0.877,0.962,1.309,2.25,1.188,3.547c-0.294,3.17-0.624,6.535-1.051,10.05c4.35-7.397,12.44-16.911,25.292-17.003    c1.384-0.024,2.719,0.61,3.606,1.685c0.887,1.076,1.242,2.495,0.966,3.862l-2.471,12.244c-0.449,2.224-2.439,3.803-4.711,3.711    c-0.222-0.008-0.439-0.013-0.653-0.013c-12.53,0-22.169,11.814-25.785,31.603l-5.809,30.772c-0.413,2.188-2.324,3.772-4.55,3.772    H83.467c-1.38,0-2.687-0.615-3.567-1.678s-1.24-2.462-0.982-3.817l8.984-47.287c1.54-8.174,2.517-16.844,3.302-23.811l0.019-0.171    c0.199-1.768,0.383-3.401,0.562-4.896c0.278-2.329,2.253-4.082,4.598-4.082h10.074    C107.759,141.875,109.002,142.423,109.88,143.386z M54.906,223.845c-0.414,2.187-2.324,3.771-4.55,3.771H37.913    c-1.378,0-2.686-0.614-3.565-1.676c-0.88-1.062-1.241-2.459-0.985-3.814l11.883-62.896H39.98c-1.378,0-2.686-0.614-3.565-1.676    c-0.88-1.062-1.241-2.459-0.985-3.814l1.529-8.095c0.413-2.187,2.324-3.771,4.55-3.771h7.022l0.718-3.592    c1.574-8.836,5.321-20.974,14.235-28.726c5.99-5.158,14.035-7.99,22.67-7.99c4.264,0,7.337,0.547,9.165,1.006    c2.46,0.618,3.965,3.101,3.375,5.568l-2.129,8.902c-0.574,2.397-2.928,3.92-5.347,3.476c-1.402-0.26-2.932-0.392-4.547-0.392    c-10.878,0-14.566,11.824-15.797,18.873l-0.5,2.875h11.827c1.379,0,2.686,0.614,3.565,1.676c0.88,1.061,1.241,2.459,0.985,3.814    l-1.529,8.095c-0.414,2.188-2.325,3.771-4.55,3.771h-13.56L54.906,223.845z M103.946,410.091    c-19.368,0-35.125-15.757-35.125-35.125s15.757-35.125,35.125-35.125s35.125,15.757,35.125,35.125    S123.314,410.091,103.946,410.091z M155.215,203.653c3.883,6.745,11.077,8.158,16.429,8.158c6.413,0,12.584-1.16,18.342-3.447    c1.328-0.527,2.826-0.412,4.058,0.313c1.232,0.726,2.061,1.979,2.244,3.396l0.908,7.021c0.263,2.034-0.842,3.999-2.717,4.829    c-7.775,3.442-17.793,5.416-27.485,5.416c-22.483,0-35.378-12.957-35.378-35.549c0-25.986,19.476-53.81,48.469-53.81    c16.73,0,27.97,9.856,27.97,24.526c0,19.316-16.881,28.705-51.608,28.705c-1.154,0-2.281-0.01-3.413-0.029    C152.895,196.279,153.717,201.067,155.215,203.653z M232.278,193.211c-1.153,0-2.281-0.01-3.413-0.029    c-0.138,3.097,0.685,7.885,2.182,10.472c3.884,6.745,11.077,8.158,16.429,8.158c6.414,0,12.585-1.16,18.343-3.447    c1.326-0.527,2.826-0.412,4.058,0.313c1.231,0.726,2.06,1.979,2.243,3.396l0.908,7.021c0.264,2.034-0.842,3.999-2.717,4.829    c-7.775,3.442-17.793,5.416-27.486,5.416c-22.483,0-35.377-12.957-35.377-35.549c0-25.986,19.476-53.81,48.469-53.81    c16.729,0,27.97,9.856,27.97,24.526C283.887,183.821,267.006,193.211,232.278,193.211z M310.225,249.617v-75.454H368.6    l56.689,75.454H310.225z M395.945,410.091c-19.367,0-35.125-15.757-35.125-35.125s15.758-35.125,35.125-35.125    c19.369,0,35.125,15.757,35.125,35.125S415.314,410.091,395.945,410.091z" fill="#888888"/>
		<path d="M179.53,173.664c5.198-1.911,7.724-4.85,7.724-8.987c0-5.794-5.038-7.859-9.754-7.859    c-11.541,0-19.387,9.914-22.064,19.524c0.648,0.007,1.289,0.01,1.921,0.01C167.357,176.353,174.61,175.473,179.53,173.664z" fill="#888888"/>
		<path d="M253.333,156.819c-11.542,0-19.387,9.914-22.064,19.524c0.648,0.007,1.289,0.01,1.921,0.01    c10,0,17.251-0.879,22.173-2.688c5.197-1.911,7.725-4.85,7.725-8.987C263.087,158.883,258.048,156.819,253.333,156.819z" fill="#888888"/>
	</g>
</g>
<g>
</g>
<g>
</g>
<g>
</g>
<g>
</g>
<g>
</g>
<g>
</g>
<g>
</g>
<g>
</g>
<g>
</g>
<g>
</g>
<g>
</g>
<g>
</g>
<g>
</g>
<g>
</g>
<g>
</g>
</svg>
